<mxfile host="app.diagrams.net" modified="2024-05-23T08:54:42.065Z" agent="Mozilla/5.0 (Windows NT 10.0; Win64; x64) AppleWebKit/537.36 (KHTML, like Gecko) Chrome/125.0.0.0 Safari/537.36" etag="td2fVYbHejDwIcMzP5-R" version="24.4.6" type="device">
  <diagram name="Page-1" id="_F5F3mshJyuDgdfpH4yV">
    <mxGraphModel dx="1434" dy="746" grid="1" gridSize="10" guides="1" tooltips="1" connect="1" arrows="1" fold="1" page="1" pageScale="1" pageWidth="850" pageHeight="1100" math="0" shadow="0">
      <root>
        <mxCell id="0" />
        <mxCell id="1" parent="0" />
        <mxCell id="yHRuAbeslQT6rBTqy3Qq-1" value="Building Blocks Repository" style="rounded=0;whiteSpace=wrap;html=1;" vertex="1" parent="1">
          <mxGeometry x="390" y="140" width="130" height="90" as="geometry" />
        </mxCell>
        <mxCell id="yHRuAbeslQT6rBTqy3Qq-12" style="edgeStyle=orthogonalEdgeStyle;rounded=0;orthogonalLoop=1;jettySize=auto;html=1;entryX=0.5;entryY=0;entryDx=0;entryDy=0;" edge="1" parent="1" source="yHRuAbeslQT6rBTqy3Qq-2" target="yHRuAbeslQT6rBTqy3Qq-4">
          <mxGeometry relative="1" as="geometry" />
        </mxCell>
        <mxCell id="yHRuAbeslQT6rBTqy3Qq-2" value="Monolith Part&lt;div&gt;Commerce and Auth Modules&lt;/div&gt;" style="rounded=0;whiteSpace=wrap;html=1;" vertex="1" parent="1">
          <mxGeometry x="90" y="330" width="150" height="90" as="geometry" />
        </mxCell>
        <mxCell id="yHRuAbeslQT6rBTqy3Qq-4" value="Projects for Communication" style="rounded=0;whiteSpace=wrap;html=1;" vertex="1" parent="1">
          <mxGeometry x="90" y="480" width="150" height="100" as="geometry" />
        </mxCell>
        <mxCell id="yHRuAbeslQT6rBTqy3Qq-5" value="Accommodation Microservice" style="rounded=0;whiteSpace=wrap;html=1;" vertex="1" parent="1">
          <mxGeometry x="490" y="330" width="140" height="80" as="geometry" />
        </mxCell>
        <mxCell id="yHRuAbeslQT6rBTqy3Qq-6" value="Project for Communication" style="rounded=0;whiteSpace=wrap;html=1;" vertex="1" parent="1">
          <mxGeometry x="500" y="490" width="130" height="80" as="geometry" />
        </mxCell>
        <mxCell id="yHRuAbeslQT6rBTqy3Qq-7" style="edgeStyle=orthogonalEdgeStyle;rounded=0;orthogonalLoop=1;jettySize=auto;html=1;entryX=0.438;entryY=0;entryDx=0;entryDy=0;entryPerimeter=0;" edge="1" parent="1" source="yHRuAbeslQT6rBTqy3Qq-5" target="yHRuAbeslQT6rBTqy3Qq-6">
          <mxGeometry relative="1" as="geometry">
            <mxPoint x="559" y="470" as="targetPoint" />
            <Array as="points">
              <mxPoint x="560" y="490" />
            </Array>
          </mxGeometry>
        </mxCell>
        <mxCell id="yHRuAbeslQT6rBTqy3Qq-8" style="edgeStyle=orthogonalEdgeStyle;rounded=0;orthogonalLoop=1;jettySize=auto;html=1;entryX=0.808;entryY=1.044;entryDx=0;entryDy=0;entryPerimeter=0;" edge="1" parent="1" source="yHRuAbeslQT6rBTqy3Qq-5" target="yHRuAbeslQT6rBTqy3Qq-1">
          <mxGeometry relative="1" as="geometry" />
        </mxCell>
        <mxCell id="yHRuAbeslQT6rBTqy3Qq-9" style="edgeStyle=orthogonalEdgeStyle;rounded=0;orthogonalLoop=1;jettySize=auto;html=1;entryX=0.323;entryY=1.022;entryDx=0;entryDy=0;entryPerimeter=0;" edge="1" parent="1" source="yHRuAbeslQT6rBTqy3Qq-2" target="yHRuAbeslQT6rBTqy3Qq-1">
          <mxGeometry relative="1" as="geometry" />
        </mxCell>
        <mxCell id="yHRuAbeslQT6rBTqy3Qq-13" value="" style="endArrow=classic;html=1;rounded=0;entryX=0;entryY=0.675;entryDx=0;entryDy=0;entryPerimeter=0;" edge="1" parent="1" source="yHRuAbeslQT6rBTqy3Qq-2" target="yHRuAbeslQT6rBTqy3Qq-6">
          <mxGeometry width="50" height="50" relative="1" as="geometry">
            <mxPoint x="400" y="480" as="sourcePoint" />
            <mxPoint x="450" y="430" as="targetPoint" />
          </mxGeometry>
        </mxCell>
        <mxCell id="yHRuAbeslQT6rBTqy3Qq-14" value="" style="endArrow=classic;html=1;rounded=0;exitX=0;exitY=0.75;exitDx=0;exitDy=0;entryX=1;entryY=0.5;entryDx=0;entryDy=0;" edge="1" parent="1" source="yHRuAbeslQT6rBTqy3Qq-5" target="yHRuAbeslQT6rBTqy3Qq-4">
          <mxGeometry width="50" height="50" relative="1" as="geometry">
            <mxPoint x="400" y="480" as="sourcePoint" />
            <mxPoint x="450" y="430" as="targetPoint" />
          </mxGeometry>
        </mxCell>
      </root>
    </mxGraphModel>
  </diagram>
</mxfile>
